<?xml version="1.0" encoding="utf-8"?>
<!-- Generated by IcoMoon.io -->
<!DOCTYPE svg PUBLIC "-//W3C//DTD SVG 1.1//EN" "http://www.w3.org/Graphics/SVG/1.1/DTD/svg11.dtd">
<svg version="1.1" xmlns="http://www.w3.org/2000/svg" xmlns:xlink="http://www.w3.org/1999/xlink" width="48" height="32" viewBox="0 0 48 32">
<path fill="#04247b" d="M0 0h48v32h-48v-32z"></path>
<path fill="#fff" d="M42.56 0l-14.56 9.76-28 18.72v3.52h5.44l42.56-28.48v-3.52h-0.8z"></path>
<path fill="#fff" d="M48 28.48l-42.4-28.48h-5.6v3.68l42.72 28.32h5.28z"></path>
<path fill="#fff" d="M48 21.44h-48v-10.72h48z"></path>
<path fill="#fff" d="M20 0v32h8v-32z"></path>
<path fill="#ce142a" d="M48 12.8h-48v6.4h48z"></path>
<path fill="#ce142a" d="M44.48 0l-16.16 10.72h3.68l16-10.72h-0.8z"></path>
<path fill="#ce142a" d="M26.4 0v32h-4.8v-32z"></path>
<path fill="#ce142a" d="M0 0l16 10.72h-3.68l-12.32-8.32z"></path>
<path fill="#ce142a" d="M0 32l16-10.56h3.36l-15.68 10.56z"></path>
<path fill="#ce142a" d="M32.16 21.44l15.84 10.56v-2.4l-12.32-8.16z"></path>
</svg>
