<?xml version="1.0" encoding="utf-8"?>
<!-- Generator: Adobe Illustrator 21.0.2, SVG Export Plug-In . SVG Version: 6.00 Build 0)  -->
<svg version="1.1" id="Isolation_Mode" xmlns="http://www.w3.org/2000/svg" xmlns:xlink="http://www.w3.org/1999/xlink" x="0px"
	 y="0px" viewBox="0 0 252 39" style="enable-background:new 0 0 252 39;" xml:space="preserve">
<style type="text/css">
	.st0{fill:#F05A22;}
	.st1{fill:#FFFFFF;}
</style>
<g>
	<path class="st0" d="M1,19.4C1,11.6,7.3,5.2,15.2,5.2c7.8,0,14.2,6.4,14.2,14.2c0,7.8-6.3,14.2-14.2,14.2C7.3,33.6,1,27.2,1,19.4"
		/>
	<path class="st1" d="M142.4,26c-3.2,0-5.9-2.6-6.1-6v-1.1c0.3-3.4,2.9-6,6.1-6c3.4,0,6.2,2.9,6.2,6.5S145.8,26,142.4,26 M143.5,7.4
		c-2.7,0-5.3,1-7.2,2.7l0-2h-6.4l0,30.1h6.4v-9.4c2,1.7,4.5,2.7,7.2,2.7c6.3,0,11.4-5.4,11.4-12S149.8,7.4,143.5,7.4"/>
	<polygon class="st1" points="251,8.1 246.2,8.1 246.2,0.9 239.8,0.9 239.8,8.1 236.9,8.1 236.9,13.3 239.8,13.3 239.8,30.7 
		246.2,30.7 246.2,13.3 251,13.3 	"/>
	<path class="st1" d="M203,19.4c0,3.6-2.8,6.5-6.2,6.5c-3.2,0-5.9-2.6-6.1-6v-1.1c0.3-3.4,2.9-6,6.1-6C200.3,12.9,203,15.8,203,19.4
		 M209.3,19.4c0-6.6-5.1-12-11.4-12c-2.7,0-5.3,1-7.2,2.7V0.9h-6.4v29.9h6.4v-2c2,1.7,4.5,2.7,7.2,2.7
		C204.2,31.4,209.3,26.1,209.3,19.4"/>
	<path class="st1" d="M163.4,18.9c-0.1-3.4,3-6.3,6.4-6.3c3.5,0,4.7,2.5,4.7,2.5l-11.1,4.5C163.5,19.6,163.5,19.3,163.4,18.9
		 M165.3,24.3l16.1-6.5c-0.6-6.1-5.6-10.4-11.7-10.4c-6.8,0-12.2,5.4-12.2,12c0,6.6,5.6,12,12.5,12c4.6,0,8.7-1.8,10.5-4l-3.5-3.5
		C170.1,28.8,165.5,24.9,165.3,24.3"/>
	<path class="st1" d="M76.2,8.1v12.8c0,2.8-2.3,5.1-5.1,5.1c-2.8,0-5.1-2.3-5.1-5.1l0-12.8h-6.3v12h0c0,6.3,5.1,11.4,11.4,11.4
		c6.3,0,11.4-5.1,11.4-11.4v-12H76.2z"/>
	<path class="st1" d="M114.3,26c-3.4,0-6.3-2.9-6.3-6.5c0-3.6,2.9-6.5,6.3-6.5c3.4,0,6.3,2.9,6.3,6.5C120.5,23,117.7,26,114.3,26
		 M114.3,7.4c-6.9,0-12.6,5.4-12.6,12c0,6.6,5.6,12,12.6,12c6.9,0,12.6-5.4,12.6-12C126.8,12.8,121.2,7.4,114.3,7.4"/>
	<path class="st1" d="M38.9,18.9c-0.1-3.4,3-6.3,6.4-6.3c3.5,0,4.7,2.5,4.7,2.5l-11.1,4.5C38.9,19.6,38.9,19.3,38.9,18.9 M40.7,24.3
		l16.1-6.5c-0.6-6.1-5.6-10.4-11.7-10.4c-6.8,0-12.2,5.4-12.2,12c0,6.6,5.6,12,12.5,12c4.6,0,8.7-1.8,10.5-4l-3.5-3.5
		C45.6,28.8,41,24.9,40.7,24.3"/>
	<path class="st1" d="M217.8,18.9c-0.1-3.4,3-6.3,6.4-6.3c3.5,0,4.7,2.5,4.7,2.5l-11.1,4.5C217.8,19.6,217.8,19.3,217.8,18.9
		 M219.6,24.3l16.1-6.5C235,11.7,230.1,7.4,224,7.4c-6.8,0-12.2,5.4-12.2,12c0,6.6,5.6,12,12.5,12c4.6,0,8.7-1.8,10.5-4l-3.5-3.5
		C224.5,28.8,219.9,24.9,219.6,24.3"/>
	<path class="st1" d="M100.3,7.6c-5-0.9-14.2,0.7-14.2,10.5v12.7h6.3v-11c0-7.8,7.8-6.5,7.8-6.5V7.6z"/>
</g>
</svg>
